<?xml version="1.0" standalone="no"?>
<!DOCTYPE svg PUBLIC "-//W3C//DTD SVG 20010904//EN"
 "http://www.w3.org/TR/2001/REC-SVG-20010904/DTD/svg10.dtd">
<svg version="1.0" xmlns="http://www.w3.org/2000/svg"
 width="400.000000pt" height="400.000000pt" viewBox="0 0 400.000000 400.000000"
 preserveAspectRatio="xMidYMid meet">
<metadata>
Created by potrace 1.14, written by Peter Selinger 2001-2017
</metadata>
<g transform="translate(0.000000,400.000000) scale(0.100000,-0.100000)"
fill="#000000" stroke="none">
<path d="M1978 3665 c-1 -2 -34 -6 -73 -10 -38 -4 -72 -9 -75 -10 -3 -2 -25
-6 -50 -10 -78 -12 -282 -75 -378 -117 -104 -45 -231 -122 -337 -203 -330
-252 -555 -657 -613 -1105 -9 -70 -9 -336 0 -415 21 -182 80 -373 173 -560
185 -371 488 -642 876 -786 87 -32 244 -74 314 -84 23 -3 50 -7 60 -9 47 -9
198 -18 288 -18 93 0 256 11 267 17 3 2 29 6 59 10 30 4 100 20 155 37 394
117 656 379 820 820 20 56 63 197 70 233 2 6 8 36 16 68 14 61 13 65 -16 72
-11 2 -57 14 -104 25 -47 12 -92 23 -100 25 -8 2 -44 11 -80 20 -36 9 -73 19
-82 20 -19 4 -19 5 -38 -105 -26 -146 -93 -311 -180 -440 -238 -353 -657 -482
-1003 -309 -299 149 -522 547 -562 1004 -6 70 -7 278 -1 345 6 71 17 165 21
180 2 8 7 31 10 50 3 19 11 53 16 75 6 22 12 47 14 55 17 87 101 272 170 375
158 236 347 337 623 336 68 -1 127 -3 130 -5 4 -2 30 -7 57 -11 68 -9 153 -38
226 -76 63 -34 161 -130 193 -191 19 -35 19 -35 -3 -59 -90 -95 -129 -252 -95
-384 80 -314 477 -419 702 -184 77 79 119 188 117 299 -6 267 -71 424 -248
602 -163 164 -338 270 -567 344 -74 24 -232 58 -320 70 -50 6 -446 14 -452 9z"/>
</g>
</svg>
